<svg width="278" height="37" viewBox="0 0 278 37" fill="none" xmlns="http://www.w3.org/2000/svg">
  <path d="M18.0904 36.55C14.6238 36.55 11.5738 35.8 8.94043 34.3C6.34043 32.7667 4.3071 30.6333 2.84043 27.9C1.4071 25.1667 0.69043 21.9833 0.69043 18.35C0.69043 15.5833 1.09043 13.1 1.89043 10.9C2.72376 8.66667 3.9071 6.76667 5.44043 5.2C6.97376 3.6 8.8071 2.36666 10.9404 1.5C13.1071 0.633332 15.4904 0.199999 18.0904 0.199999C21.6238 0.199999 24.6904 0.949999 27.2904 2.45C29.8904 3.95 31.9071 6.06666 33.3404 8.8C34.8071 11.5 35.5404 14.6667 35.5404 18.3C35.5404 21.0667 35.1238 23.5667 34.2904 25.8C33.4571 28.0333 32.2738 29.95 30.7404 31.55C29.2071 33.15 27.3738 34.3833 25.2404 35.25C23.1071 36.1167 20.7238 36.55 18.0904 36.55ZM18.0904 29.95C20.0571 29.95 21.7238 29.5 23.0904 28.6C24.4904 27.6667 25.5571 26.3333 26.2904 24.6C27.0571 22.8333 27.4404 20.75 27.4404 18.35C27.4404 14.6833 26.6238 11.85 24.9904 9.85C23.3571 7.81666 21.0571 6.8 18.0904 6.8C16.1571 6.8 14.4904 7.25 13.0904 8.15C11.6904 9.05 10.6238 10.3667 9.89043 12.1C9.1571 13.8333 8.79043 15.9167 8.79043 18.35C8.79043 21.9833 9.6071 24.8333 11.2404 26.9C12.8738 28.9333 15.1571 29.95 18.0904 29.95ZM44.3854 36.45C43.2187 36.45 42.3187 36.1333 41.6854 35.5C41.0854 34.8333 40.7854 33.9 40.7854 32.7V4.2C40.7854 2.93333 41.0854 1.96667 41.6854 1.3C42.3187 0.633332 43.152 0.299998 44.1854 0.299998C45.0854 0.299998 45.7687 0.483332 46.2354 0.85C46.7354 1.18333 47.302 1.75 47.9354 2.55L65.4854 24.9H64.1354V4C64.1354 2.83333 64.4354 1.93333 65.0354 1.3C65.6687 0.633332 66.5687 0.299998 67.7354 0.299998C68.902 0.299998 69.7854 0.633332 70.3854 1.3C71.0187 1.93333 71.3354 2.83333 71.3354 4V32.85C71.3354 33.95 71.052 34.8333 70.4854 35.5C69.9187 36.1333 69.152 36.45 68.1854 36.45C67.252 36.45 66.502 36.2667 65.9354 35.9C65.402 35.5333 64.8187 34.95 64.1854 34.15L46.6854 11.8H47.9854V32.7C47.9854 33.9 47.6854 34.8333 47.0854 35.5C46.4854 36.1333 45.5854 36.45 44.3854 36.45ZM81.7318 36C80.4318 36 79.4318 35.65 78.7318 34.95C78.0318 34.25 77.6818 33.25 77.6818 31.95V4.8C77.6818 3.5 78.0318 2.5 78.7318 1.8C79.4318 1.1 80.4318 0.749998 81.7318 0.749998H99.1818C100.182 0.749998 100.932 1.01667 101.432 1.55C101.965 2.05 102.232 2.78333 102.232 3.75C102.232 4.75 101.965 5.51667 101.432 6.05C100.932 6.55 100.182 6.8 99.1818 6.8H85.0818V15.05H98.0318C99.0652 15.05 99.8318 15.3167 100.332 15.85C100.865 16.35 101.132 17.1 101.132 18.1C101.132 19.1 100.865 19.8667 100.332 20.4C99.8318 20.9 99.0652 21.15 98.0318 21.15H85.0818V29.95H99.1818C100.182 29.95 100.932 30.2167 101.432 30.75C101.965 31.25 102.232 31.9833 102.232 32.95C102.232 33.95 101.965 34.7167 101.432 35.25C100.932 35.75 100.182 36 99.1818 36H81.7318ZM119.505 36.45C118.239 36.45 117.272 36.1 116.605 35.4C115.939 34.7 115.605 33.7167 115.605 32.45V7.15H106.755C105.722 7.15 104.922 6.86667 104.355 6.3C103.789 5.73333 103.505 4.95 103.505 3.95C103.505 2.91666 103.789 2.13333 104.355 1.6C104.922 1.03333 105.722 0.749998 106.755 0.749998H132.205C133.239 0.749998 134.039 1.03333 134.605 1.6C135.172 2.13333 135.455 2.91666 135.455 3.95C135.455 4.95 135.172 5.73333 134.605 6.3C134.039 6.86667 133.239 7.15 132.205 7.15H123.355V32.45C123.355 33.7167 123.022 34.7 122.355 35.4C121.722 36.1 120.772 36.45 119.505 36.45ZM141.947 36.45C140.68 36.45 139.714 36.1 139.047 35.4C138.38 34.7 138.047 33.7167 138.047 32.45V4.3C138.047 3.03333 138.38 2.05 139.047 1.35C139.714 0.649998 140.68 0.299998 141.947 0.299998C143.18 0.299998 144.13 0.649998 144.797 1.35C145.464 2.05 145.797 3.03333 145.797 4.3V32.45C145.797 33.7167 145.464 34.7 144.797 35.4C144.164 36.1 143.214 36.45 141.947 36.45ZM169.241 36.55C165.441 36.55 162.191 35.8 159.491 34.3C156.791 32.8 154.707 30.7 153.241 28C151.807 25.2667 151.091 22.05 151.091 18.35C151.091 15.5833 151.491 13.1 152.291 10.9C153.124 8.66667 154.324 6.76667 155.891 5.2C157.457 3.6 159.357 2.36666 161.591 1.5C163.857 0.633332 166.407 0.199999 169.241 0.199999C170.907 0.199999 172.591 0.416666 174.291 0.85C176.024 1.25 177.524 1.83333 178.791 2.6C179.624 3.06666 180.191 3.65 180.491 4.35C180.791 5.05 180.874 5.75 180.741 6.45C180.641 7.15 180.357 7.75 179.891 8.25C179.457 8.75 178.907 9.06667 178.241 9.2C177.574 9.33333 176.824 9.18333 175.991 8.75C174.991 8.15 173.941 7.71667 172.841 7.45C171.741 7.18333 170.624 7.05 169.491 7.05C167.257 7.05 165.374 7.5 163.841 8.4C162.341 9.26667 161.207 10.5333 160.441 12.2C159.674 13.8667 159.291 15.9167 159.291 18.35C159.291 20.75 159.674 22.8 160.441 24.5C161.207 26.2 162.341 27.5 163.841 28.4C165.374 29.2667 167.257 29.7 169.491 29.7C170.557 29.7 171.641 29.5667 172.741 29.3C173.874 29.0333 174.957 28.6167 175.991 28.05C176.857 27.6167 177.624 27.4667 178.291 27.6C178.991 27.7 179.557 28 179.991 28.5C180.457 28.9667 180.741 29.5333 180.841 30.2C180.974 30.8667 180.907 31.5333 180.641 32.2C180.374 32.8667 179.874 33.4333 179.141 33.9C177.907 34.7333 176.391 35.3833 174.591 35.85C172.791 36.3167 171.007 36.55 169.241 36.55ZM189.471 36.45C188.204 36.45 187.237 36.1 186.571 35.4C185.904 34.7 185.571 33.7167 185.571 32.45V4.25C185.571 2.98333 185.904 2.01667 186.571 1.35C187.237 0.649998 188.204 0.299998 189.471 0.299998C190.704 0.299998 191.654 0.649998 192.321 1.35C192.987 2.01667 193.321 2.98333 193.321 4.25V16.1H193.421L206.721 2.2C207.287 1.6 207.871 1.15 208.471 0.85C209.104 0.516665 209.821 0.349997 210.621 0.349997C211.787 0.349997 212.621 0.649997 213.121 1.25C213.654 1.85 213.887 2.55 213.821 3.35C213.754 4.15 213.387 4.9 212.721 5.6L199.371 19.25L199.421 15.9L213.421 30.85C214.187 31.6833 214.571 32.5333 214.571 33.4C214.604 34.2667 214.321 35 213.721 35.6C213.154 36.1667 212.304 36.45 211.171 36.45C210.204 36.45 209.421 36.25 208.821 35.85C208.254 35.45 207.621 34.8667 206.921 34.1L193.421 19.9H193.321V32.45C193.321 33.7167 192.987 34.7 192.321 35.4C191.687 36.1 190.737 36.45 189.471 36.45ZM223.294 36C221.994 36 220.994 35.65 220.294 34.95C219.594 34.25 219.244 33.25 219.244 31.95V4.8C219.244 3.5 219.594 2.5 220.294 1.8C220.994 1.1 221.994 0.749998 223.294 0.749998H240.744C241.744 0.749998 242.494 1.01667 242.994 1.55C243.528 2.05 243.794 2.78333 243.794 3.75C243.794 4.75 243.528 5.51667 242.994 6.05C242.494 6.55 241.744 6.8 240.744 6.8H226.644V15.05H239.594C240.628 15.05 241.394 15.3167 241.894 15.85C242.428 16.35 242.694 17.1 242.694 18.1C242.694 19.1 242.428 19.8667 241.894 20.4C241.394 20.9 240.628 21.15 239.594 21.15H226.644V29.95H240.744C241.744 29.95 242.494 30.2167 242.994 30.75C243.528 31.25 243.794 31.9833 243.794 32.95C243.794 33.95 243.528 34.7167 242.994 35.25C242.494 35.75 241.744 36 240.744 36H223.294ZM261.068 36.45C259.801 36.45 258.834 36.1 258.168 35.4C257.501 34.7 257.168 33.7167 257.168 32.45V7.15H248.318C247.284 7.15 246.484 6.86667 245.918 6.3C245.351 5.73333 245.068 4.95 245.068 3.95C245.068 2.91666 245.351 2.13333 245.918 1.6C246.484 1.03333 247.284 0.749998 248.318 0.749998H273.768C274.801 0.749998 275.601 1.03333 276.168 1.6C276.734 2.13333 277.018 2.91666 277.018 3.95C277.018 4.95 276.734 5.73333 276.168 6.3C275.601 6.86667 274.801 7.15 273.768 7.15H264.918V32.45C264.918 33.7167 264.584 34.7 263.918 35.4C263.284 36.1 262.334 36.45 261.068 36.45Z" fill="url(#paint0_linear_186_352)"/>
  <defs>
    <linearGradient id="paint0_linear_186_352" x1="73.5479" y1="54" x2="137.5" y2="54" gradientUnits="userSpaceOnUse">
      <stop stop-color="#0077B6"/>
      <stop offset="1" stop-color="#00B4D8"/>
    </linearGradient>
  </defs>
</svg>
